<mxfile host="app.diagrams.net" agent="Mozilla/5.0 (Windows NT 10.0; Win64; x64) AppleWebKit/537.36 (KHTML, like Gecko) Chrome/134.0.0.0 Safari/537.36 Edg/134.0.0.0" version="25.0.1">
  <diagram name="Page-1" id="c7558073-3199-34d8-9f00-42111426c3f3">
    <mxGraphModel dx="2892" dy="1141" grid="1" gridSize="10" guides="1" tooltips="1" connect="1" arrows="1" fold="1" page="1" pageScale="1" pageWidth="826" pageHeight="1169" background="none" math="0" shadow="0">
      <root>
        <mxCell id="0" />
        <mxCell id="1" parent="0" />
        <mxCell id="UUAciKTG4EP-2zctrXjs-119" value="Acting" style="rounded=0;whiteSpace=wrap;html=1;verticalAlign=top;fillColor=#d5e8d4;strokeColor=#82b366;" vertex="1" parent="1">
          <mxGeometry x="820" y="20" width="180" height="420" as="geometry" />
        </mxCell>
        <mxCell id="UUAciKTG4EP-2zctrXjs-153" style="edgeStyle=orthogonalEdgeStyle;rounded=0;orthogonalLoop=1;jettySize=auto;html=1;exitX=1;exitY=0.5;exitDx=0;exitDy=0;entryX=0;entryY=0.5;entryDx=0;entryDy=0;" edge="1" parent="1" source="UUAciKTG4EP-2zctrXjs-96" target="UUAciKTG4EP-2zctrXjs-121">
          <mxGeometry relative="1" as="geometry">
            <Array as="points">
              <mxPoint x="385" y="215" />
              <mxPoint x="385" y="150" />
            </Array>
          </mxGeometry>
        </mxCell>
        <mxCell id="UUAciKTG4EP-2zctrXjs-108" value="Perception" style="rounded=0;whiteSpace=wrap;html=1;verticalAlign=top;fillColor=#fff2cc;strokeColor=#d6b656;" vertex="1" parent="1">
          <mxGeometry x="100" y="20" width="180" height="420" as="geometry" />
        </mxCell>
        <mxCell id="UUAciKTG4EP-2zctrXjs-141" style="edgeStyle=orthogonalEdgeStyle;rounded=0;orthogonalLoop=1;jettySize=auto;html=1;exitX=1;exitY=0.5;exitDx=0;exitDy=0;entryX=0.5;entryY=0;entryDx=0;entryDy=0;" edge="1" parent="1" source="UUAciKTG4EP-2zctrXjs-109" target="UUAciKTG4EP-2zctrXjs-137">
          <mxGeometry relative="1" as="geometry">
            <mxPoint x="1180" y="390" as="targetPoint" />
            <Array as="points">
              <mxPoint x="290" y="100" />
              <mxPoint x="290" y="10" />
              <mxPoint x="1180" y="10" />
            </Array>
          </mxGeometry>
        </mxCell>
        <mxCell id="UUAciKTG4EP-2zctrXjs-118" value="Mapping" style="rounded=0;whiteSpace=wrap;html=1;verticalAlign=top;fillColor=#ffe6cc;strokeColor=#d79b00;" vertex="1" parent="1">
          <mxGeometry x="300" y="335" width="180" height="210" as="geometry" />
        </mxCell>
        <mxCell id="UUAciKTG4EP-2zctrXjs-96" value="Speedometer" style="rounded=0;whiteSpace=wrap;html=1;" vertex="1" parent="1">
          <mxGeometry x="-150" y="195" width="120" height="40" as="geometry" />
        </mxCell>
        <mxCell id="UUAciKTG4EP-2zctrXjs-97" value="Navigation" style="rounded=0;whiteSpace=wrap;html=1;" vertex="1" parent="1">
          <mxGeometry x="-150" y="245" width="120" height="40" as="geometry" />
        </mxCell>
        <mxCell id="UUAciKTG4EP-2zctrXjs-130" style="edgeStyle=orthogonalEdgeStyle;rounded=0;orthogonalLoop=1;jettySize=auto;html=1;exitX=1;exitY=0.5;exitDx=0;exitDy=0;entryX=0;entryY=0.5;entryDx=0;entryDy=0;" edge="1" parent="1" source="UUAciKTG4EP-2zctrXjs-98" target="UUAciKTG4EP-2zctrXjs-111">
          <mxGeometry relative="1" as="geometry">
            <Array as="points">
              <mxPoint x="30" y="365" />
              <mxPoint x="30" y="250" />
            </Array>
          </mxGeometry>
        </mxCell>
        <mxCell id="UUAciKTG4EP-2zctrXjs-98" value="GNSS" style="rounded=0;whiteSpace=wrap;html=1;" vertex="1" parent="1">
          <mxGeometry x="-150" y="345" width="120" height="40" as="geometry" />
        </mxCell>
        <mxCell id="UUAciKTG4EP-2zctrXjs-112" value="Planning" style="rounded=0;whiteSpace=wrap;html=1;verticalAlign=top;fillColor=#dae8fc;strokeColor=#6c8ebf;" vertex="1" parent="1">
          <mxGeometry x="550" y="20" width="180" height="420" as="geometry" />
        </mxCell>
        <mxCell id="UUAciKTG4EP-2zctrXjs-129" style="edgeStyle=orthogonalEdgeStyle;rounded=0;orthogonalLoop=1;jettySize=auto;html=1;exitX=1;exitY=0.5;exitDx=0;exitDy=0;entryX=0;entryY=0.25;entryDx=0;entryDy=0;" edge="1" parent="1" source="UUAciKTG4EP-2zctrXjs-99" target="UUAciKTG4EP-2zctrXjs-111">
          <mxGeometry relative="1" as="geometry">
            <Array as="points">
              <mxPoint x="10" y="315" />
              <mxPoint x="10" y="235" />
            </Array>
          </mxGeometry>
        </mxCell>
        <mxCell id="UUAciKTG4EP-2zctrXjs-99" value="IMU" style="rounded=0;whiteSpace=wrap;html=1;" vertex="1" parent="1">
          <mxGeometry x="-150" y="295" width="120" height="40" as="geometry" />
        </mxCell>
        <mxCell id="UUAciKTG4EP-2zctrXjs-128" style="edgeStyle=orthogonalEdgeStyle;rounded=0;orthogonalLoop=1;jettySize=auto;html=1;exitX=1;exitY=0.5;exitDx=0;exitDy=0;entryX=0;entryY=0.5;entryDx=0;entryDy=0;" edge="1" parent="1" source="UUAciKTG4EP-2zctrXjs-101" target="UUAciKTG4EP-2zctrXjs-109">
          <mxGeometry relative="1" as="geometry">
            <Array as="points">
              <mxPoint x="-10" y="165" />
              <mxPoint x="-10" y="100" />
            </Array>
          </mxGeometry>
        </mxCell>
        <mxCell id="UUAciKTG4EP-2zctrXjs-101" value="Camera" style="rounded=0;whiteSpace=wrap;html=1;" vertex="1" parent="1">
          <mxGeometry x="-150" y="145" width="120" height="40" as="geometry" />
        </mxCell>
        <mxCell id="UUAciKTG4EP-2zctrXjs-145" style="edgeStyle=orthogonalEdgeStyle;rounded=0;orthogonalLoop=1;jettySize=auto;html=1;exitX=1;exitY=0.5;exitDx=0;exitDy=0;entryX=0;entryY=0.5;entryDx=0;entryDy=0;" edge="1" parent="1" source="UUAciKTG4EP-2zctrXjs-102" target="UUAciKTG4EP-2zctrXjs-143">
          <mxGeometry relative="1" as="geometry">
            <Array as="points">
              <mxPoint x="90" y="515" />
              <mxPoint x="90" y="400" />
            </Array>
          </mxGeometry>
        </mxCell>
        <mxCell id="UUAciKTG4EP-2zctrXjs-102" value="LIDAR" style="rounded=0;whiteSpace=wrap;html=1;" vertex="1" parent="1">
          <mxGeometry x="-150" y="495" width="120" height="40" as="geometry" />
        </mxCell>
        <mxCell id="UUAciKTG4EP-2zctrXjs-131" style="edgeStyle=orthogonalEdgeStyle;rounded=0;orthogonalLoop=1;jettySize=auto;html=1;exitX=1;exitY=0.5;exitDx=0;exitDy=0;entryX=0;entryY=0.75;entryDx=0;entryDy=0;" edge="1" parent="1" source="UUAciKTG4EP-2zctrXjs-104" target="UUAciKTG4EP-2zctrXjs-111">
          <mxGeometry relative="1" as="geometry">
            <Array as="points">
              <mxPoint x="50" y="415" />
              <mxPoint x="50" y="265" />
            </Array>
          </mxGeometry>
        </mxCell>
        <mxCell id="UUAciKTG4EP-2zctrXjs-104" value="Odometrie" style="rounded=0;whiteSpace=wrap;html=1;" vertex="1" parent="1">
          <mxGeometry x="-150" y="395" width="120" height="40" as="geometry" />
        </mxCell>
        <mxCell id="UUAciKTG4EP-2zctrXjs-127" value="" style="edgeStyle=orthogonalEdgeStyle;rounded=0;orthogonalLoop=1;jettySize=auto;html=1;" edge="1" parent="1" source="UUAciKTG4EP-2zctrXjs-109" target="UUAciKTG4EP-2zctrXjs-110">
          <mxGeometry relative="1" as="geometry" />
        </mxCell>
        <mxCell id="UUAciKTG4EP-2zctrXjs-161" style="edgeStyle=orthogonalEdgeStyle;rounded=0;orthogonalLoop=1;jettySize=auto;html=1;exitX=1;exitY=0.75;exitDx=0;exitDy=0;entryX=0;entryY=0.25;entryDx=0;entryDy=0;" edge="1" parent="1" source="UUAciKTG4EP-2zctrXjs-109" target="UUAciKTG4EP-2zctrXjs-133">
          <mxGeometry relative="1" as="geometry" />
        </mxCell>
        <mxCell id="UUAciKTG4EP-2zctrXjs-109" value="VisionNode" style="rounded=0;whiteSpace=wrap;html=1;" vertex="1" parent="1">
          <mxGeometry x="130" y="70" width="120" height="60" as="geometry" />
        </mxCell>
        <mxCell id="UUAciKTG4EP-2zctrXjs-110" value="Traffic Light Detection" style="rounded=0;whiteSpace=wrap;html=1;" vertex="1" parent="1">
          <mxGeometry x="130" y="145" width="120" height="60" as="geometry" />
        </mxCell>
        <mxCell id="UUAciKTG4EP-2zctrXjs-165" style="edgeStyle=orthogonalEdgeStyle;rounded=0;orthogonalLoop=1;jettySize=auto;html=1;exitX=1;exitY=0.75;exitDx=0;exitDy=0;entryX=0.25;entryY=0;entryDx=0;entryDy=0;" edge="1" parent="1" source="UUAciKTG4EP-2zctrXjs-111" target="UUAciKTG4EP-2zctrXjs-133">
          <mxGeometry relative="1" as="geometry" />
        </mxCell>
        <mxCell id="UUAciKTG4EP-2zctrXjs-111" value="Localization" style="rounded=0;whiteSpace=wrap;html=1;" vertex="1" parent="1">
          <mxGeometry x="130" y="220" width="120" height="60" as="geometry" />
        </mxCell>
        <mxCell id="UUAciKTG4EP-2zctrXjs-113" value="Local Planning" style="rounded=0;whiteSpace=wrap;html=1;verticalAlign=top;" vertex="1" parent="1">
          <mxGeometry x="570" y="80" width="140" height="200" as="geometry" />
        </mxCell>
        <mxCell id="UUAciKTG4EP-2zctrXjs-154" style="edgeStyle=orthogonalEdgeStyle;rounded=0;orthogonalLoop=1;jettySize=auto;html=1;exitX=1;exitY=0.25;exitDx=0;exitDy=0;entryX=0;entryY=0.5;entryDx=0;entryDy=0;" edge="1" parent="1" source="UUAciKTG4EP-2zctrXjs-115" target="UUAciKTG4EP-2zctrXjs-122">
          <mxGeometry relative="1" as="geometry" />
        </mxCell>
        <mxCell id="UUAciKTG4EP-2zctrXjs-170" style="edgeStyle=orthogonalEdgeStyle;rounded=0;orthogonalLoop=1;jettySize=auto;html=1;exitX=1;exitY=0.75;exitDx=0;exitDy=0;entryX=0.75;entryY=0;entryDx=0;entryDy=0;" edge="1" parent="1" source="UUAciKTG4EP-2zctrXjs-115" target="UUAciKTG4EP-2zctrXjs-167">
          <mxGeometry relative="1" as="geometry" />
        </mxCell>
        <mxCell id="UUAciKTG4EP-2zctrXjs-115" value="ACC" style="rounded=0;whiteSpace=wrap;html=1;" vertex="1" parent="1">
          <mxGeometry x="580" y="120" width="120" height="60" as="geometry" />
        </mxCell>
        <mxCell id="UUAciKTG4EP-2zctrXjs-150" value="" style="edgeStyle=orthogonalEdgeStyle;rounded=0;orthogonalLoop=1;jettySize=auto;html=1;" edge="1" parent="1" source="UUAciKTG4EP-2zctrXjs-116" target="UUAciKTG4EP-2zctrXjs-115">
          <mxGeometry relative="1" as="geometry" />
        </mxCell>
        <mxCell id="UUAciKTG4EP-2zctrXjs-171" style="edgeStyle=orthogonalEdgeStyle;rounded=0;orthogonalLoop=1;jettySize=auto;html=1;exitX=0.5;exitY=1;exitDx=0;exitDy=0;entryX=0.5;entryY=0;entryDx=0;entryDy=0;" edge="1" parent="1" source="UUAciKTG4EP-2zctrXjs-116" target="UUAciKTG4EP-2zctrXjs-167">
          <mxGeometry relative="1" as="geometry">
            <Array as="points">
              <mxPoint x="590" y="265" />
            </Array>
          </mxGeometry>
        </mxCell>
        <mxCell id="UUAciKTG4EP-2zctrXjs-116" value="Motion Planning" style="rounded=0;whiteSpace=wrap;html=1;" vertex="1" parent="1">
          <mxGeometry x="580" y="205" width="120" height="60" as="geometry" />
        </mxCell>
        <mxCell id="UUAciKTG4EP-2zctrXjs-155" value="" style="edgeStyle=orthogonalEdgeStyle;rounded=0;orthogonalLoop=1;jettySize=auto;html=1;" edge="1" parent="1" source="UUAciKTG4EP-2zctrXjs-121" target="UUAciKTG4EP-2zctrXjs-122">
          <mxGeometry relative="1" as="geometry" />
        </mxCell>
        <mxCell id="UUAciKTG4EP-2zctrXjs-121" value="velocity controller" style="rounded=0;whiteSpace=wrap;html=1;" vertex="1" parent="1">
          <mxGeometry x="850" y="120" width="120" height="60" as="geometry" />
        </mxCell>
        <mxCell id="UUAciKTG4EP-2zctrXjs-156" style="edgeStyle=orthogonalEdgeStyle;rounded=0;orthogonalLoop=1;jettySize=auto;html=1;entryX=0;entryY=0.5;entryDx=0;entryDy=0;" edge="1" parent="1" source="UUAciKTG4EP-2zctrXjs-122" target="UUAciKTG4EP-2zctrXjs-123">
          <mxGeometry relative="1" as="geometry" />
        </mxCell>
        <mxCell id="UUAciKTG4EP-2zctrXjs-122" value="vehicle controller" style="rounded=0;whiteSpace=wrap;html=1;" vertex="1" parent="1">
          <mxGeometry x="850" y="205" width="120" height="60" as="geometry" />
        </mxCell>
        <mxCell id="UUAciKTG4EP-2zctrXjs-157" value="" style="edgeStyle=orthogonalEdgeStyle;rounded=0;orthogonalLoop=1;jettySize=auto;html=1;" edge="1" parent="1" source="UUAciKTG4EP-2zctrXjs-123" target="UUAciKTG4EP-2zctrXjs-124">
          <mxGeometry relative="1" as="geometry" />
        </mxCell>
        <mxCell id="UUAciKTG4EP-2zctrXjs-123" value="CARLA bridge" style="rounded=0;whiteSpace=wrap;html=1;" vertex="1" parent="1">
          <mxGeometry x="1040" y="205" width="120" height="60" as="geometry" />
        </mxCell>
        <mxCell id="UUAciKTG4EP-2zctrXjs-124" value="Vehicle" style="rounded=0;whiteSpace=wrap;html=1;" vertex="1" parent="1">
          <mxGeometry x="1220" y="205" width="120" height="60" as="geometry" />
        </mxCell>
        <mxCell id="UUAciKTG4EP-2zctrXjs-144" style="edgeStyle=orthogonalEdgeStyle;rounded=0;orthogonalLoop=1;jettySize=auto;html=1;exitX=1;exitY=0.5;exitDx=0;exitDy=0;entryX=0;entryY=0.5;entryDx=0;entryDy=0;" edge="1" parent="1" source="UUAciKTG4EP-2zctrXjs-126" target="UUAciKTG4EP-2zctrXjs-142">
          <mxGeometry relative="1" as="geometry">
            <Array as="points">
              <mxPoint x="70" y="465" />
              <mxPoint x="70" y="325" />
            </Array>
          </mxGeometry>
        </mxCell>
        <mxCell id="UUAciKTG4EP-2zctrXjs-126" value="Radar" style="rounded=0;whiteSpace=wrap;html=1;" vertex="1" parent="1">
          <mxGeometry x="-150" y="445" width="120" height="40" as="geometry" />
        </mxCell>
        <mxCell id="UUAciKTG4EP-2zctrXjs-140" style="edgeStyle=orthogonalEdgeStyle;rounded=0;orthogonalLoop=1;jettySize=auto;html=1;exitX=0.5;exitY=1;exitDx=0;exitDy=0;entryX=0.5;entryY=0;entryDx=0;entryDy=0;" edge="1" parent="1" source="UUAciKTG4EP-2zctrXjs-133" target="UUAciKTG4EP-2zctrXjs-134">
          <mxGeometry relative="1" as="geometry" />
        </mxCell>
        <mxCell id="UUAciKTG4EP-2zctrXjs-166" style="edgeStyle=orthogonalEdgeStyle;rounded=0;orthogonalLoop=1;jettySize=auto;html=1;exitX=1;exitY=0.25;exitDx=0;exitDy=0;entryX=0;entryY=0.75;entryDx=0;entryDy=0;" edge="1" parent="1" source="UUAciKTG4EP-2zctrXjs-133" target="UUAciKTG4EP-2zctrXjs-115">
          <mxGeometry relative="1" as="geometry" />
        </mxCell>
        <mxCell id="UUAciKTG4EP-2zctrXjs-168" style="edgeStyle=orthogonalEdgeStyle;rounded=0;orthogonalLoop=1;jettySize=auto;html=1;exitX=1;exitY=0.75;exitDx=0;exitDy=0;entryX=0;entryY=0.25;entryDx=0;entryDy=0;" edge="1" parent="1" source="UUAciKTG4EP-2zctrXjs-133" target="UUAciKTG4EP-2zctrXjs-167">
          <mxGeometry relative="1" as="geometry" />
        </mxCell>
        <mxCell id="UUAciKTG4EP-2zctrXjs-133" value="Data Integration" style="rounded=0;whiteSpace=wrap;html=1;" vertex="1" parent="1">
          <mxGeometry x="330" y="385" width="120" height="60" as="geometry" />
        </mxCell>
        <mxCell id="UUAciKTG4EP-2zctrXjs-139" style="edgeStyle=orthogonalEdgeStyle;rounded=0;orthogonalLoop=1;jettySize=auto;html=1;exitX=1;exitY=0.5;exitDx=0;exitDy=0;entryX=0;entryY=0.5;entryDx=0;entryDy=0;" edge="1" parent="1" source="UUAciKTG4EP-2zctrXjs-134" target="UUAciKTG4EP-2zctrXjs-137">
          <mxGeometry relative="1" as="geometry" />
        </mxCell>
        <mxCell id="UUAciKTG4EP-2zctrXjs-134" value="Visualization" style="rounded=0;whiteSpace=wrap;html=1;" vertex="1" parent="1">
          <mxGeometry x="330" y="460" width="120" height="60" as="geometry" />
        </mxCell>
        <mxCell id="UUAciKTG4EP-2zctrXjs-137" value="rViz" style="rounded=0;whiteSpace=wrap;html=1;" vertex="1" parent="1">
          <mxGeometry x="1120" y="460" width="120" height="60" as="geometry" />
        </mxCell>
        <mxCell id="UUAciKTG4EP-2zctrXjs-162" style="edgeStyle=orthogonalEdgeStyle;rounded=0;orthogonalLoop=1;jettySize=auto;html=1;exitX=1;exitY=0.5;exitDx=0;exitDy=0;entryX=0;entryY=0.5;entryDx=0;entryDy=0;" edge="1" parent="1" source="UUAciKTG4EP-2zctrXjs-142" target="UUAciKTG4EP-2zctrXjs-133">
          <mxGeometry relative="1" as="geometry">
            <Array as="points">
              <mxPoint x="270" y="325" />
              <mxPoint x="270" y="415" />
            </Array>
          </mxGeometry>
        </mxCell>
        <mxCell id="UUAciKTG4EP-2zctrXjs-142" value="LidarNode" style="rounded=0;whiteSpace=wrap;html=1;" vertex="1" parent="1">
          <mxGeometry x="130" y="295" width="120" height="60" as="geometry" />
        </mxCell>
        <mxCell id="UUAciKTG4EP-2zctrXjs-163" style="edgeStyle=orthogonalEdgeStyle;rounded=0;orthogonalLoop=1;jettySize=auto;html=1;entryX=0;entryY=0.75;entryDx=0;entryDy=0;" edge="1" parent="1" source="UUAciKTG4EP-2zctrXjs-143" target="UUAciKTG4EP-2zctrXjs-133">
          <mxGeometry relative="1" as="geometry">
            <Array as="points">
              <mxPoint x="260" y="400" />
              <mxPoint x="260" y="430" />
            </Array>
          </mxGeometry>
        </mxCell>
        <mxCell id="UUAciKTG4EP-2zctrXjs-143" value="RadarNode" style="rounded=0;whiteSpace=wrap;html=1;" vertex="1" parent="1">
          <mxGeometry x="130" y="370" width="120" height="60" as="geometry" />
        </mxCell>
        <mxCell id="UUAciKTG4EP-2zctrXjs-148" style="edgeStyle=orthogonalEdgeStyle;rounded=0;orthogonalLoop=1;jettySize=auto;html=1;exitX=1;exitY=0.5;exitDx=0;exitDy=0;entryX=0;entryY=0.5;entryDx=0;entryDy=0;" edge="1" parent="1" source="UUAciKTG4EP-2zctrXjs-111" target="UUAciKTG4EP-2zctrXjs-116">
          <mxGeometry relative="1" as="geometry" />
        </mxCell>
        <mxCell id="UUAciKTG4EP-2zctrXjs-169" style="edgeStyle=orthogonalEdgeStyle;rounded=0;orthogonalLoop=1;jettySize=auto;html=1;exitX=0.25;exitY=0;exitDx=0;exitDy=0;entryX=0;entryY=0.5;entryDx=0;entryDy=0;" edge="1" parent="1" source="UUAciKTG4EP-2zctrXjs-167" target="UUAciKTG4EP-2zctrXjs-115">
          <mxGeometry relative="1" as="geometry" />
        </mxCell>
        <mxCell id="UUAciKTG4EP-2zctrXjs-172" style="edgeStyle=orthogonalEdgeStyle;rounded=0;orthogonalLoop=1;jettySize=auto;html=1;exitX=1;exitY=0.5;exitDx=0;exitDy=0;entryX=0.5;entryY=1;entryDx=0;entryDy=0;" edge="1" parent="1" source="UUAciKTG4EP-2zctrXjs-167" target="UUAciKTG4EP-2zctrXjs-137">
          <mxGeometry relative="1" as="geometry" />
        </mxCell>
        <mxCell id="UUAciKTG4EP-2zctrXjs-173" style="edgeStyle=orthogonalEdgeStyle;rounded=0;orthogonalLoop=1;jettySize=auto;html=1;exitX=1;exitY=0.25;exitDx=0;exitDy=0;entryX=0.5;entryY=1;entryDx=0;entryDy=0;" edge="1" parent="1" source="UUAciKTG4EP-2zctrXjs-167" target="UUAciKTG4EP-2zctrXjs-122">
          <mxGeometry relative="1" as="geometry" />
        </mxCell>
        <mxCell id="UUAciKTG4EP-2zctrXjs-167" value="Behavior Agent" style="rounded=0;whiteSpace=wrap;html=1;" vertex="1" parent="1">
          <mxGeometry x="530" y="585" width="120" height="60" as="geometry" />
        </mxCell>
      </root>
    </mxGraphModel>
  </diagram>
</mxfile>
